<svg width="1653" height="993" xmlns="http://www.w3.org/2000/svg" xmlns:xlink="http://www.w3.org/1999/xlink" overflow="hidden"><defs><clipPath id="clip0"><rect x="582" y="172" width="1653" height="993"/></clipPath><clipPath id="clip1"><rect x="583" y="173" width="1650" height="990"/></clipPath><clipPath id="clip2"><rect x="583" y="173" width="1650" height="990"/></clipPath><clipPath id="clip3"><rect x="692" y="372" width="1494" height="583"/></clipPath><clipPath id="clip4"><rect x="692" y="372" width="1494" height="583"/></clipPath><clipPath id="clip5"><rect x="583" y="173" width="1650" height="990"/></clipPath><clipPath id="clip6"><rect x="583" y="173" width="1650" height="990"/></clipPath><clipPath id="clip7"><rect x="583" y="173" width="1650" height="990"/></clipPath><clipPath id="clip8"><rect x="583" y="173" width="1650" height="990"/></clipPath><clipPath id="clip9"><rect x="583" y="173" width="1650" height="990"/></clipPath><clipPath id="clip10"><rect x="583" y="173" width="1650" height="990"/></clipPath><clipPath id="clip11"><rect x="583" y="173" width="1650" height="990"/></clipPath><clipPath id="clip12"><rect x="583" y="173" width="1650" height="990"/></clipPath><clipPath id="clip13"><rect x="583" y="173" width="1650" height="990"/></clipPath><clipPath id="clip14"><rect x="583" y="173" width="1650" height="990"/></clipPath><clipPath id="clip15"><rect x="583" y="173" width="1650" height="990"/></clipPath><clipPath id="clip16"><rect x="583" y="173" width="1650" height="990"/></clipPath><clipPath id="clip17"><rect x="583" y="173" width="1650" height="990"/></clipPath><clipPath id="clip18"><rect x="583" y="173" width="1650" height="990"/></clipPath><clipPath id="clip19"><rect x="583" y="173" width="1650" height="990"/></clipPath><clipPath id="clip20"><rect x="583" y="173" width="1650" height="990"/></clipPath><clipPath id="clip21"><rect x="583" y="173" width="1650" height="990"/></clipPath><clipPath id="clip22"><rect x="583" y="173" width="1650" height="990"/></clipPath><clipPath id="clip23"><rect x="583" y="173" width="1650" height="990"/></clipPath></defs><g clip-path="url(#clip0)" transform="translate(-582 -172)"><rect x="583" y="173" width="1650" height="990" fill="#FFFFFF"/><g clip-path="url(#clip1)"><path d="M692.5 836.528 2182.5 836.528M692.5 720.524 2182.5 720.524M692.5 604.52 2182.5 604.52M692.5 488.516 2182.5 488.516M692.5 372.5 2182.5 372.5" stroke="#D9D9D9" stroke-width="3.4375" stroke-linejoin="round" stroke-miterlimit="10" fill="none"/></g><g clip-path="url(#clip2)"><path d="M692.5 952.5 2182.5 952.5" stroke="#D9D9D9" stroke-width="3.4375" stroke-linejoin="round" stroke-miterlimit="10" fill="none" fill-rule="evenodd"/></g><g clip-path="url(#clip3)"><path d="M799 627 1012.03 743.024 1225.04 836 1438.05 674.022 1650.05 651.021 1863.06 627 2076 720.024" stroke="#4472C4" stroke-width="10.3125" stroke-linecap="round" stroke-linejoin="round" stroke-miterlimit="10" fill="none"/></g><g clip-path="url(#clip4)"><path d="M799 442 1012.03 558.018 1225.04 627 1438.05 511.017 1650.05 535.018 1863.06 465.015 2076 488.016" stroke="#ED7D31" stroke-width="10.3125" stroke-linecap="round" stroke-linejoin="round" stroke-miterlimit="10" fill="none"/></g><g clip-path="url(#clip5)"><text fill="#595959" font-family="Calibri,Calibri_MSFontService,sans-serif" font-weight="400" font-size="41" transform="matrix(1 0 0 1 633.692 964)">0</text></g><g clip-path="url(#clip6)"><text fill="#595959" font-family="Calibri,Calibri_MSFontService,sans-serif" font-weight="400" font-size="41" transform="matrix(1 0 0 1 633.692 848)">5</text></g><g clip-path="url(#clip7)"><text fill="#595959" font-family="Calibri,Calibri_MSFontService,sans-serif" font-weight="400" font-size="41" transform="matrix(1 0 0 1 612.792 732)">10</text></g><g clip-path="url(#clip8)"><text fill="#595959" font-family="Calibri,Calibri_MSFontService,sans-serif" font-weight="400" font-size="41" transform="matrix(1 0 0 1 612.792 616)">15</text></g><g clip-path="url(#clip9)"><text fill="#595959" font-family="Calibri,Calibri_MSFontService,sans-serif" font-weight="400" font-size="41" transform="matrix(1 0 0 1 612.792 500)">20</text></g><g clip-path="url(#clip10)"><text fill="#595959" font-family="Calibri,Calibri_MSFontService,sans-serif" font-weight="400" font-size="41" transform="matrix(1 0 0 1 612.792 384)">25</text></g><g clip-path="url(#clip11)"><text fill="#595959" font-family="Calibri,Calibri_MSFontService,sans-serif" font-weight="400" font-size="41" transform="matrix(1 0 0 1 778.367 1017)">10</text></g><g clip-path="url(#clip12)"><text fill="#595959" font-family="Calibri,Calibri_MSFontService,sans-serif" font-weight="400" font-size="41" transform="matrix(1 0 0 1 991.185 1017)">11</text></g><g clip-path="url(#clip13)"><text fill="#595959" font-family="Calibri,Calibri_MSFontService,sans-serif" font-weight="400" font-size="41" transform="matrix(1 0 0 1 1204 1017)">12</text></g><g clip-path="url(#clip14)"><text fill="#595959" font-family="Calibri,Calibri_MSFontService,sans-serif" font-weight="400" font-size="41" transform="matrix(1 0 0 1 1416.82 1017)">13</text></g><g clip-path="url(#clip15)"><text fill="#595959" font-family="Calibri,Calibri_MSFontService,sans-serif" font-weight="400" font-size="41" transform="matrix(1 0 0 1 1629.64 1017)">14</text></g><g clip-path="url(#clip16)"><text fill="#595959" font-family="Calibri,Calibri_MSFontService,sans-serif" font-weight="400" font-size="41" transform="matrix(1 0 0 1 1842.46 1017)">15</text></g><g clip-path="url(#clip17)"><text fill="#595959" font-family="Calibri,Calibri_MSFontService,sans-serif" font-weight="400" font-size="41" transform="matrix(1 0 0 1 2055.27 1017)">16</text></g><g clip-path="url(#clip18)"><text fill="#595959" font-family="Yu Gothic,Yu Gothic_MSFontService,sans-serif" font-weight="400" font-size="64" transform="matrix(1 0 0 1 1176.16 284)">グラフ</text></g><g clip-path="url(#clip19)"><text fill="#595959" font-family="Yu Gothic,Yu Gothic_MSFontService,sans-serif" font-weight="400" font-size="64" transform="matrix(1 0 0 1 1383.17 284)">タイトル</text></g><g clip-path="url(#clip20)"><path d="M1217 1097 1305 1097" stroke="#4472C4" stroke-width="10.3125" stroke-linecap="round" stroke-linejoin="round" stroke-miterlimit="10" fill="none" fill-rule="evenodd"/></g><g clip-path="url(#clip21)"><text fill="#595959" font-family="Yu Gothic,Yu Gothic_MSFontService,sans-serif" font-weight="400" font-size="41" transform="matrix(1 0 0 1 1314.39 1109)">最低</text></g><g clip-path="url(#clip22)"><path d="M1435 1097 1523 1097" stroke="#ED7D31" stroke-width="10.3125" stroke-linecap="round" stroke-linejoin="round" stroke-miterlimit="10" fill="none" fill-rule="evenodd"/></g><g clip-path="url(#clip23)"><text fill="#595959" font-family="Yu Gothic,Yu Gothic_MSFontService,sans-serif" font-weight="400" font-size="41" transform="matrix(1 0 0 1 1532.55 1109)">最高</text></g><rect x="583.5" y="173.5" width="1650" height="990" stroke="#D9D9D9" stroke-width="3.4375" stroke-linejoin="round" stroke-miterlimit="10" fill="none"/></g></svg>